# Blender v2.77 (sub 0) OBJ File: 'Low_Poly_Spaceship_001.blend'
# www.blender.org
mtllib Low_Poly_Spaceship_001.mtl
o Low_Poly_Spaceship_001_Cube
v 1.148400 0.034397 1.621450
v 0.885478 -0.865507 1.638370
v 1.148401 0.336615 -0.368529
v 0.966207 0.301013 -0.747125
v 0.989103 0.110149 1.621450
v 0.854773 -0.834960 1.845928
v 0.966207 0.301013 -1.656851
v 0.841350 0.859151 -0.747125
v 1.026851 0.454892 1.638370
v 0.954804 -0.033824 1.820585
v 0.279667 -0.531093 3.910618
v 1.010780 0.309723 -1.756234
v 0.841351 0.859152 -1.656851
v 0.964184 0.958438 -0.368529
v 0.894135 0.514533 1.657606
v 0.854772 0.203243 1.845928
v 0.312396 -0.070843 3.969803
v 0.520637 -0.469112 -3.075023
v 1.010780 0.309723 -2.677419
v 0.880163 0.893609 -1.756234
v 0.279667 -0.056536 3.910619
v 0.607109 0.276774 -3.075023
v 0.880163 0.893609 -2.677419
v 0.719072 0.385948 1.845928
v 0.220522 0.103632 3.778631
v 0.565437 0.496006 -3.075023
v 0.127817 0.859151 -0.885329
v 0.713534 0.859151 -0.885329
v 0.713534 0.859152 -1.518647
v 0.127817 0.859152 -1.518647
v 0.166605 0.897670 -0.927270
v 0.674746 0.897670 -0.927269
v 0.674746 0.897670 -1.476706
v 0.166605 0.897670 -1.476707
v 0.787670 0.605806 1.367548
v 0.830571 0.906007 -0.104606
v 0.756368 0.668360 1.316030
v 0.795651 0.957150 -0.031954
v 0.833082 -1.000000 -0.361630
v 1.018414 -0.834153 -0.368529
v 0.833082 -1.000000 1.638370
v 1.023697 -0.834825 1.638370
v 0.895104 -0.876812 1.638370
v 0.859764 -0.657701 -0.747125
v 0.674432 -0.823548 -0.747125
v 0.674432 -0.823548 -1.656852
v 0.859764 -0.657701 -1.656852
v 0.713245 -0.866716 -1.756235
v 0.898576 -0.700868 -1.756235
v 0.898577 -0.700868 -2.677420
v 0.713245 -0.866716 -2.677420
v 0.793004 -0.770326 -2.773809
v 3.462037 -1.428443 -2.331686
v 3.463772 -1.368184 -2.331686
v 3.462633 -1.366698 -3.246791
v 3.460946 -1.427202 -3.246791
v 3.462037 -1.428443 -2.755759
v 3.463724 -1.367939 -2.755759
v 3.460593 -1.427248 -3.030393
v 3.462280 -1.366745 -3.030393
v 3.462280 -1.366745 -2.837498
v 3.460593 -1.427248 -2.837498
v 3.460946 -1.427202 -3.051466
v 3.462633 -1.366698 -3.051466
v 0.541006 0.276774 -3.075023
v 0.471714 -0.408381 -3.075023
v 0.507613 0.455910 -3.075023
v 0.389377 0.276774 -2.956332
v 0.354247 -0.292039 -2.956333
v 0.372447 0.379098 -2.956332
v 0.781368 0.276774 -2.865390
v 0.683931 0.647642 -2.865390
v 0.667177 -0.601124 -2.872242
v 0.000000 -1.000000 -0.361631
v 0.000000 -1.000000 1.638369
v 0.000000 -0.823548 -0.747125
v -1.148400 0.034397 1.621450
v -0.885478 -0.865507 1.638370
v 0.000000 -0.865507 1.638369
v 0.000000 -0.823548 -1.656852
v -1.148401 0.336615 -0.368529
v -0.966207 0.301013 -0.747125
v -0.989103 0.110149 1.621450
v -0.854773 -0.834960 1.845928
v 0.000000 -0.834960 1.845928
v 0.000000 -0.866716 -1.756235
v -0.966207 0.301013 -1.656851
v -0.841350 0.859151 -0.747125
v -1.026851 0.454892 1.638370
v -0.954804 -0.033824 1.820585
v -0.279667 -0.531093 3.910618
v 0.000000 -0.531093 4.033044
v 0.000000 -0.866716 -2.677420
v -1.010780 0.309723 -1.756234
v -0.841351 0.859152 -1.656851
v -0.964184 0.958438 -0.368529
v -0.894135 0.514533 1.657606
v -0.854772 0.203243 1.845928
v -0.312396 -0.070843 3.969803
v 0.000000 -0.070843 4.092229
v 0.000000 -0.472943 -3.075023
v -0.520637 -0.469112 -3.075023
v -1.010780 0.309723 -2.677419
v -0.880163 0.893609 -1.756234
v 0.000000 0.859151 -0.747125
v 0.000000 0.859152 -1.656852
v -0.279667 -0.056536 3.910619
v 0.000000 -0.056536 4.033044
v -0.607109 0.276774 -3.075023
v -0.880163 0.893609 -2.677419
v 0.000000 0.893609 -1.756234
v 0.000000 1.000000 -0.368529
v -0.719072 0.385948 1.845928
v -0.220522 0.103632 3.778631
v 0.000000 0.103632 3.901057
v 0.000000 0.496006 -3.075023
v -0.565437 0.496006 -3.075023
v 0.000000 0.893609 -2.677420
v 0.000000 0.547542 1.676025
v 0.000000 0.593627 1.845928
v -0.127817 0.859151 -0.885329
v -0.713534 0.859151 -0.885329
v -0.713534 0.859152 -1.518647
v -0.127817 0.859152 -1.518647
v -0.166605 0.897670 -0.927270
v -0.674746 0.897670 -0.927269
v -0.674746 0.897670 -1.476706
v -0.166605 0.897670 -1.476707
v 0.000000 0.605806 1.367548
v -0.787670 0.605806 1.367548
v 0.000000 0.936390 -0.104606
v -0.830571 0.906007 -0.104606
v 0.000000 0.668360 1.316030
v -0.756368 0.668360 1.316030
v 0.000000 0.957150 -0.031954
v -0.795651 0.957150 -0.031954
v -0.833082 -1.000000 -0.361630
v -1.018414 -0.834153 -0.368529
v -0.833082 -1.000000 1.638370
v -1.023697 -0.834825 1.638370
v -0.895104 -0.876812 1.638370
v -0.859764 -0.657701 -0.747125
v -0.674432 -0.823548 -0.747125
v -0.674432 -0.823548 -1.656852
v -0.859764 -0.657701 -1.656852
v -0.713245 -0.866716 -1.756235
v -0.898576 -0.700868 -1.756235
v -0.898577 -0.700868 -2.677420
v -0.713245 -0.866716 -2.677420
v -0.793004 -0.770326 -2.773809
v -3.462037 -1.428443 -2.331686
v -3.463772 -1.368184 -2.331686
v -3.462633 -1.366698 -3.246791
v -3.460946 -1.427202 -3.246791
v -3.462037 -1.428443 -2.755759
v -3.463724 -1.367939 -2.755759
v -3.460593 -1.427248 -3.030393
v -3.462280 -1.366745 -3.030393
v -3.462280 -1.366745 -2.837498
v -3.460593 -1.427248 -2.837498
v -3.460946 -1.427202 -3.051466
v -3.462633 -1.366698 -3.051466
v -0.541006 0.276774 -3.075023
v -0.471714 -0.408381 -3.075023
v 0.000000 -0.408381 -3.075023
v 0.000000 0.455910 -3.075023
v -0.507613 0.455910 -3.075023
v 0.000000 0.276774 -2.956333
v -0.389377 0.276774 -2.956332
v -0.354247 -0.292039 -2.956333
v 0.000000 -0.292039 -2.956333
v 0.000000 0.379098 -2.956333
v -0.372447 0.379098 -2.956332
v 0.000000 0.647642 -2.865390
v -0.781368 0.276774 -2.865390
v 0.000000 -0.601124 -2.872242
v -0.683931 0.647642 -2.865390
v -0.667177 -0.601124 -2.872242
vn 0.9922 -0.1240 -0.0107
vn 0.0027 0.0179 0.9998
vn 0.9939 -0.1103 0.0000
vn 0.9002 -0.0999 -0.4238
vn 0.9110 -0.1012 0.3997
vn 0.9589 0.2806 0.0415
vn 0.0409 -0.0535 0.9977
vn 0.9858 -0.1100 0.1269
vn 0.9759 0.2183 0.0000
vn 0.9533 -0.1079 0.2823
vn 0.3789 -0.1313 0.9161
vn 0.8877 0.1986 0.4155
vn 0.0000 1.0000 0.0000
vn 0.8871 0.2324 -0.3988
vn 0.8744 0.2246 0.4301
vn 0.8345 0.4777 0.2747
vn 0.0873 0.9735 0.2112
vn -0.0000 0.9448 0.3276
vn 0.0219 0.9520 -0.3055
vn 0.4258 0.8806 0.2077
vn 0.0217 0.9709 0.2387
vn 0.1445 0.9465 0.2886
vn 0.5259 0.3906 0.7556
vn 0.0000 0.6072 -0.7945
vn 0.0390 0.9738 0.2240
vn 0.1338 0.9684 0.2103
vn -0.0000 0.0000 1.0000
vn 0.6547 -0.7316 -0.1899
vn 0.6327 -0.0658 -0.7716
vn 0.6007 0.1435 -0.7865
vn -0.9922 -0.1240 -0.0107
vn -0.0027 0.0179 0.9998
vn -0.9939 -0.1103 0.0000
vn -0.9002 -0.0999 -0.4238
vn -0.9110 -0.1012 0.3997
vn -0.9589 0.2806 0.0415
vn -0.0409 -0.0535 0.9977
vn -0.9858 -0.1100 0.1269
vn -0.9759 0.2183 0.0000
vn -0.9533 -0.1079 0.2823
vn -0.3789 -0.1313 0.9161
vn -0.8877 0.1986 0.4155
vn -0.8871 0.2324 -0.3988
vn -0.8744 0.2246 0.4301
vn -0.8345 0.4777 0.2747
vn -0.0873 0.9735 0.2112
vn -0.0219 0.9520 -0.3055
vn -0.4258 0.8806 0.2077
vn -0.0217 0.9709 0.2387
vn -0.1445 0.9465 0.2886
vn -0.5259 0.3906 0.7556
vn -0.0390 0.9738 0.2240
vn -0.1338 0.9684 0.2103
vn -0.6547 -0.7316 -0.1899
vn -0.6327 -0.0658 -0.7716
vn -0.6007 0.1435 -0.7865
vn 0.0168 0.8977 -0.4402
vn 0.0000 0.9778 0.2095
vn -0.0000 0.6357 0.7719
vn 0.8672 0.4817 0.1259
vn 0.2513 0.9679 0.0000
vn 0.2133 0.9770 -0.0001
vn -0.1753 0.1449 -0.9738
vn -0.1999 -0.9798 -0.0000
vn 0.6625 -0.5653 0.4914
vn -0.1608 -0.9870 0.0000
vn 0.9996 -0.0283 -0.0001
vn 0.9996 -0.0279 0.0000
vn -0.0168 0.8977 -0.4402
vn -0.8672 0.4817 0.1259
vn -0.2513 0.9679 0.0000
vn -0.2133 0.9770 -0.0001
vn 0.1753 0.1449 -0.9738
vn 0.1999 -0.9798 -0.0000
vn -0.6625 -0.5653 0.4914
vn 0.1608 -0.9870 0.0000
vn -0.9996 -0.0283 -0.0001
vn -0.9996 -0.0279 0.0000
vn 0.3398 0.6347 0.6941
vn 0.7820 0.5542 0.2852
vn 0.2373 0.9478 0.2132
vn -0.3398 0.6347 0.6941
vn -0.7820 0.5542 0.2852
vn -0.2373 0.9478 0.2132
vn 0.0000 -0.9093 -0.4162
vn 0.0000 -1.0000 -0.0000
vn -0.0000 -0.9893 0.1456
vn -0.0000 -0.9172 0.3984
vn 0.0155 -0.9895 0.1435
vn 0.7713 -0.0927 -0.6296
vn 0.0027 -0.8412 -0.5407
vn 0.0000 0.0000 -1.0000
vn 0.7739 0.1824 -0.6064
vn -0.7046 0.7096 0.0000
vn -0.0000 0.7365 0.6764
vn 0.0000 0.7365 -0.6764
vn 0.7046 0.7096 0.0000
vn 0.2629 0.9648 0.0000
vn -0.3572 -0.9071 -0.2225
vn 0.0924 0.9466 -0.3088
vn -0.2118 -0.9773 -0.0000
vn -0.0423 -0.9449 0.3245
vn 0.4015 0.8927 0.2049
vn 0.9994 -0.0279 -0.0181
vn 0.0000 0.8102 -0.5861
vn -0.0140 -0.5930 -0.8051
vn 0.9995 -0.0279 0.0167
vn -0.0155 -0.9895 0.1435
vn -0.7713 -0.0927 -0.6296
vn -0.0027 -0.8412 -0.5407
vn -0.7739 0.1824 -0.6064
vn -0.2629 0.9648 0.0000
vn 0.3572 -0.9071 -0.2225
vn -0.0924 0.9466 -0.3088
vn 0.2118 -0.9773 -0.0000
vn 0.0423 -0.9449 0.3245
vn -0.4015 0.8927 0.2049
vn -0.9994 -0.0279 -0.0181
vn 0.0140 -0.5930 -0.8051
vn -0.9995 -0.0279 0.0167
vn -0.6474 0.0539 -0.7603
vn -0.6161 -0.1101 -0.7800
vn 0.0000 -0.8395 -0.5433
vn 0.0000 0.7141 -0.7000
vn 0.6474 0.0539 -0.7603
vn 0.6161 -0.1101 -0.7800
usemtl Low_Poly_Spaceship_001_Mat_01
s off
f 3//1 1//1 42//1 40//1
f 2//2 43//2 42//2 1//2 5//2
f 4//3 44//3 47//3 7//3
f 3//4 40//4 44//4 4//4
f 7//5 47//5 49//5 12//5
f 1//6 3//6 14//6 9//6
f 1//7 9//7 15//7 5//7
f 6//8 2//8 5//8 10//8
f 12//3 49//3 50//3 19//3
f 8//9 4//9 7//9 13//9
f 10//10 17//10 11//10 6//10
f 92//11 11//11 17//11 100//11
f 13//12 7//12 12//12 20//12
f 106//13 105//13 27//13 30//13
f 14//14 3//14 4//14 8//14
f 15//15 16//15 10//15 5//15
f 17//16 10//16 16//16 21//16
f 100//17 17//17 21//17 108//17
f 20//9 12//9 19//9 23//9
f 106//18 13//18 20//18 111//18
f 112//19 14//19 8//19 105//19
f 15//20 9//20 14//20
f 111//13 20//13 23//13 118//13
f 119//21 15//21 35//21 129//21
f 15//22 119//22 120//22 24//22
f 24//23 16//23 15//23
f 118//24 23//24 72//24 174//24
f 105//13 8//13 28//13 27//13
f 8//13 13//13 29//13 28//13
f 13//13 106//13 30//13 29//13
f 14//25 112//25 131//25 36//25
f 15//26 14//26 36//26 35//26
f 41//27 42//27 43//27
f 50//28 51//28 52//28
f 73//29 71//29 19//29 50//29 52//29
f 71//30 72//30 23//30 19//30
f 81//31 138//31 140//31 77//31
f 78//32 83//32 77//32 140//32 141//32
f 82//33 87//33 145//33 142//33
f 81//34 82//34 142//34 138//34
f 87//35 94//35 147//35 145//35
f 77//36 89//36 96//36 81//36
f 77//37 83//37 97//37 89//37
f 84//38 90//38 83//38 78//38
f 94//33 103//33 148//33 147//33
f 88//39 95//39 87//39 82//39
f 90//40 84//40 91//40 99//40
f 92//41 100//41 99//41 91//41
f 95//42 104//42 94//42 87//42
f 106//13 124//13 121//13 105//13
f 96//43 88//43 82//43 81//43
f 97//44 83//44 90//44 98//44
f 99//45 107//45 98//45 90//45
f 100//46 108//46 107//46 99//46
f 104//39 110//39 103//39 94//39
f 106//18 111//18 104//18 95//18
f 112//47 105//47 88//47 96//47
f 97//48 96//48 89//48
f 111//13 118//13 110//13 104//13
f 119//49 129//49 130//49 97//49
f 97//50 113//50 120//50 119//50
f 113//51 97//51 98//51
f 118//24 174//24 177//24 110//24
f 105//13 121//13 122//13 88//13
f 88//13 122//13 123//13 95//13
f 95//13 123//13 124//13 106//13
f 96//52 132//52 131//52 112//52
f 97//53 130//53 132//53 96//53
f 139//27 141//27 140//27
f 148//54 150//54 149//54
f 178//55 150//55 148//55 103//55 175//55
f 175//56 103//56 110//56 177//56
usemtl Low_Poly_Spaceship_001_Mat_02
f 36//57 131//57 135//57 38//57
f 133//58 37//58 38//58 135//58
f 129//59 35//59 37//59 133//59
f 35//60 36//60 38//60 37//60
f 50//61 49//61 64//61 55//61
f 40//62 42//62 54//62 58//62
f 51//63 50//63 55//63 56//63
f 48//64 51//64 56//64 63//64
f 42//65 41//65 53//65 54//65
f 41//66 39//66 57//66 53//66
f 53//67 57//67 58//67 54//67
f 55//68 64//68 63//68 56//68
f 132//69 136//69 135//69 131//69
f 133//58 135//58 136//58 134//58
f 129//59 133//59 134//59 130//59
f 130//70 134//70 136//70 132//70
f 148//71 153//71 162//71 147//71
f 138//72 156//72 152//72 140//72
f 149//73 154//73 153//73 148//73
f 146//74 161//74 154//74 149//74
f 140//75 152//75 151//75 139//75
f 139//76 151//76 155//76 137//76
f 151//77 152//77 156//77 155//77
f 153//78 154//78 161//78 162//78
usemtl Low_Poly_Spaceship_001_Mat_03
f 108//79 21//79 25//79 115//79
f 25//80 21//80 16//80 24//80
f 115//81 25//81 24//81 120//81
f 108//82 115//82 114//82 107//82
f 114//83 113//83 98//83 107//83
f 115//84 120//84 113//84 114//84
usemtl Low_Poly_Spaceship_001_Mat_04
f 76//85 45//85 39//85 74//85
f 75//27 41//27 43//27 2//27 79//27
f 80//86 46//86 45//86 76//86
f 79//87 2//87 6//87 85//87
f 86//88 48//88 46//88 80//88
f 85//89 6//89 11//89 92//89
f 93//86 51//86 48//86 86//86
f 18//90 22//90 71//90 73//90
f 101//91 18//91 73//91 176//91
f 22//92 18//92 66//92 65//92
f 116//92 26//92 67//92 166//92
f 22//93 26//93 72//93 71//93
f 30//94 27//94 31//94 34//94
f 31//13 32//13 33//13 34//13
f 27//95 28//95 32//95 31//95
f 29//96 30//96 34//96 33//96
f 28//97 29//97 33//97 32//97
f 47//98 44//98 61//98 60//98
f 39//99 45//99 62//99 57//99
f 49//100 47//100 60//100 64//100
f 45//101 46//101 59//101 62//101
f 74//86 39//86 41//86 75//86
f 46//102 48//102 63//102 59//102
f 44//103 40//103 58//103 61//103
f 26//92 22//92 65//92 67//92
f 18//92 101//92 165//92 66//92
f 62//104 61//104 58//104 57//104
f 174//105 72//105 26//105 116//105
f 176//106 73//106 52//106 51//106 93//106
f 64//107 60//107 59//107 63//107
f 60//68 61//68 62//68 59//68
f 76//85 74//85 137//85 143//85
f 75//27 79//27 78//27 141//27 139//27
f 80//86 76//86 143//86 144//86
f 79//87 85//87 84//87 78//87
f 86//88 80//88 144//88 146//88
f 85//108 92//108 91//108 84//108
f 93//86 86//86 146//86 149//86
f 102//109 178//109 175//109 109//109
f 101//110 176//110 178//110 102//110
f 109//92 163//92 164//92 102//92
f 116//92 166//92 167//92 117//92
f 109//111 175//111 177//111 117//111
f 124//97 128//97 125//97 121//97
f 125//13 128//13 127//13 126//13
f 121//95 125//95 126//95 122//95
f 123//96 127//96 128//96 124//96
f 122//94 126//94 127//94 123//94
f 145//112 158//112 159//112 142//112
f 137//113 155//113 160//113 143//113
f 147//114 162//114 158//114 145//114
f 143//115 160//115 157//115 144//115
f 74//86 75//86 139//86 137//86
f 144//116 157//116 161//116 146//116
f 142//117 159//117 156//117 138//117
f 117//92 167//92 163//92 109//92
f 102//92 164//92 165//92 101//92
f 160//118 155//118 156//118 159//118
f 174//105 116//105 117//105 177//105
f 176//119 93//119 149//119 150//119 178//119
f 162//120 161//120 157//120 158//120
f 158//78 157//78 160//78 159//78
usemtl Low_Poly_Spaceship_001_Mat_05
f 65//121 66//121 69//121 68//121
f 67//122 65//122 68//122 70//122
f 168//92 68//92 69//92 171//92
f 172//92 70//92 68//92 168//92
f 166//123 67//123 70//123 172//123
f 66//124 165//124 171//124 69//124
f 163//125 169//125 170//125 164//125
f 167//126 173//126 169//126 163//126
f 168//92 171//92 170//92 169//92
f 172//92 168//92 169//92 173//92
f 166//123 172//123 173//123 167//123
f 164//124 170//124 171//124 165//124
